G04*
G04 #@! TF.GenerationSoftware,Altium Limited,Altium Designer,25.8.1 (18)*
G04*
G04 Layer_Color=65535*
%FSLAX44Y44*%
%MOMM*%
G71*
G04*
G04 #@! TF.SameCoordinates,6D136024-224E-458A-A63F-B79C518EF4E7*
G04*
G04*
G04 #@! TF.FilePolarity,Positive*
G04*
G01*
G75*
%ADD10C,0.2000*%
%ADD11C,0.1524*%
%ADD12C,0.1270*%
%ADD13C,0.2540*%
G36*
X916545Y693418D02*
X912735D01*
Y690878D01*
X916545D01*
Y693418D01*
D02*
G37*
G36*
X867518Y747445D02*
X864978D01*
Y743635D01*
X867518D01*
Y747445D01*
D02*
G37*
G36*
Y797445D02*
X864978D01*
Y793635D01*
X867518D01*
Y797445D01*
D02*
G37*
G36*
X896545Y867662D02*
X892735D01*
Y870202D01*
X896545D01*
Y867662D01*
D02*
G37*
G36*
X946545D02*
X942735D01*
Y870202D01*
X946545D01*
Y867662D01*
D02*
G37*
G36*
X966545Y693418D02*
X962735D01*
Y690878D01*
X966545D01*
Y693418D01*
D02*
G37*
G36*
X1016545D02*
X1012735D01*
Y690878D01*
X1016545D01*
Y693418D01*
D02*
G37*
G36*
X1041762Y767445D02*
X1044302D01*
Y763635D01*
X1041762D01*
Y767445D01*
D02*
G37*
G36*
Y817445D02*
X1044302D01*
Y813635D01*
X1041762D01*
Y817445D01*
D02*
G37*
G36*
X996545Y867662D02*
X992735D01*
Y870202D01*
X996545D01*
Y867662D01*
D02*
G37*
D10*
X671160Y648310D02*
G03*
X671160Y648310I-1000J0D01*
G01*
X715400Y623950D02*
G03*
X715400Y623950I-1000J0D01*
G01*
Y938910D02*
G03*
X715400Y938910I-1000J0D01*
G01*
X1146000Y809500D02*
G03*
X1146000Y809500I-1000J0D01*
G01*
X801250Y780250D02*
G03*
X801250Y780250I-1000J0D01*
G01*
X687000Y905330D02*
G03*
X687000Y905330I-1000J0D01*
G01*
X710200Y618250D02*
Y645650D01*
Y618250D02*
X1118600D01*
Y645650D01*
X710200D02*
X1118600D01*
X710200Y933210D02*
Y960610D01*
Y933210D02*
X1118600D01*
Y960610D01*
X710200D02*
X1118600D01*
X628000Y847330D02*
Y909330D01*
X648000Y846330D02*
X672000D01*
X648000Y910330D02*
X672000D01*
X692000Y847330D02*
Y909330D01*
D11*
X825762Y784164D02*
G03*
X825762Y784164I-762J0D01*
G01*
X828926Y797750D02*
G03*
X828926Y797750I-762J0D01*
G01*
X842262Y803562D02*
G03*
X842262Y803562I-762J0D01*
G01*
X1080546Y692250D02*
G03*
X1080546Y692250I-762J0D01*
G01*
X722018Y865000D02*
G03*
X722018Y865000I-762J0D01*
G01*
X1114466Y770000D02*
G03*
X1114466Y770000I-762J0D01*
G01*
X1133262Y826244D02*
G03*
X1133262Y826244I-762J0D01*
G01*
X1003075Y685270D02*
X1006925D01*
X1003075Y674730D02*
X1006925D01*
X1093686Y737170D02*
X1097534D01*
X1093686Y747710D02*
X1097534D01*
X1065270Y835576D02*
Y839425D01*
X1054730Y835576D02*
Y839425D01*
X887909Y843095D02*
X892085Y847271D01*
X883647Y709547D02*
X889916D01*
X1025633D02*
Y715816D01*
X1019364Y851533D02*
X1025633D01*
X883647Y845264D02*
Y851533D01*
Y709547D02*
Y715816D01*
X1019364Y709547D02*
X1025633D01*
Y845264D02*
Y851533D01*
X883647D02*
X889916D01*
X1079340Y733310D02*
X1111880D01*
X1079340Y700770D02*
X1111880D01*
X1087467Y834010D02*
X1107533D01*
X1087467Y800990D02*
X1107533D01*
D12*
X681610Y654810D02*
Y807210D01*
X633310Y654810D02*
Y807210D01*
X681610D01*
X633310Y654810D02*
X681610D01*
X1196000Y859500D02*
X1199500D01*
X1196000Y785500D02*
X1199500D01*
X1156500Y857200D02*
Y859500D01*
Y785500D02*
Y787800D01*
Y859500D02*
X1174000D01*
X1156500Y785500D02*
X1174000D01*
D13*
X720849Y985515D02*
X715770D01*
X718309D01*
Y972819D01*
X715770Y970280D01*
X713231D01*
X710692Y972819D01*
X725927Y970280D02*
X731005D01*
X728466D01*
Y985515D01*
X725927Y982976D01*
X720849Y670555D02*
X715770D01*
X718309D01*
Y657859D01*
X715770Y655320D01*
X713231D01*
X710692Y657859D01*
X736084Y655320D02*
X725927D01*
X736084Y665477D01*
Y668016D01*
X733545Y670555D01*
X728466D01*
X725927Y668016D01*
M02*
