G04*
G04 #@! TF.GenerationSoftware,Altium Limited,Altium Designer,25.8.1 (18)*
G04*
G04 Layer_Color=16711935*
%FSLAX44Y44*%
%MOMM*%
G71*
G04*
G04 #@! TF.SameCoordinates,6D136024-224E-458A-A63F-B79C518EF4E7*
G04*
G04*
G04 #@! TF.FilePolarity,Negative*
G04*
G01*
G75*
%ADD47O,1.1532X1.5032*%
%ADD48C,1.8532*%
%ADD49C,1.7332*%
%ADD50R,1.7332X1.7332*%
%ADD51C,1.7272*%
%ADD52C,0.9144*%
%ADD53C,0.8382*%
G36*
X1176260Y787760D02*
X1176280Y788010D01*
X1176310Y788260D01*
X1176359Y788510D01*
X1176420Y788760D01*
X1176489Y789010D01*
X1176570Y789250D01*
X1176669Y789480D01*
X1176779Y789710D01*
X1176899Y789940D01*
X1177039Y790160D01*
X1177179Y790370D01*
X1177339Y790570D01*
X1177499Y790760D01*
X1177680Y790950D01*
X1177859Y791120D01*
X1178059Y791290D01*
X1178260Y791440D01*
X1178469Y791590D01*
X1178689Y791720D01*
X1178910Y791840D01*
X1179139Y791950D01*
X1179380Y792050D01*
X1179620Y792140D01*
X1179859Y792210D01*
X1180109Y792270D01*
X1180359Y792310D01*
X1180620Y792350D01*
X1180870Y792370D01*
X1181120D01*
X1181124Y792375D01*
X1188879Y792370D01*
X1189129D01*
X1189380Y792350D01*
X1189640Y792310D01*
X1189890Y792270D01*
X1190139Y792210D01*
X1190379Y792140D01*
X1190620Y792050D01*
X1190860Y791950D01*
X1191089Y791840D01*
X1191310Y791720D01*
X1191529Y791590D01*
X1191740Y791440D01*
X1191939Y791290D01*
X1192140Y791120D01*
X1192319Y790950D01*
X1192499Y790760D01*
X1192660Y790570D01*
X1192820Y790370D01*
X1192960Y790160D01*
X1193100Y789940D01*
X1193220Y789710D01*
X1193329Y789480D01*
X1193429Y789250D01*
X1193510Y789010D01*
X1193579Y788760D01*
X1193640Y788510D01*
X1193689Y788260D01*
X1193719Y788010D01*
X1193739Y787760D01*
X1193749Y787500D01*
X1193739Y787240D01*
X1193719Y786990D01*
X1193689Y786740D01*
X1193640Y786490D01*
X1193579Y786240D01*
X1193510Y785990D01*
X1193429Y785750D01*
X1193329Y785520D01*
X1193220Y785290D01*
X1193100Y785060D01*
X1192960Y784840D01*
X1192820Y784630D01*
X1192660Y784430D01*
X1192499Y784240D01*
X1192319Y784050D01*
X1192140Y783880D01*
X1191939Y783710D01*
X1191740Y783560D01*
X1191529Y783410D01*
X1191310Y783280D01*
X1191089Y783160D01*
X1190860Y783050D01*
X1190620Y782950D01*
X1190379Y782860D01*
X1190139Y782790D01*
X1189890Y782730D01*
X1189640Y782690D01*
X1189380Y782650D01*
X1189129Y782630D01*
X1188879D01*
X1181120D01*
X1180870D01*
X1180620Y782650D01*
X1180359Y782690D01*
X1180109Y782730D01*
X1179859Y782790D01*
X1179620Y782860D01*
X1179380Y782950D01*
X1179139Y783050D01*
X1178910Y783160D01*
X1178689Y783280D01*
X1178469Y783410D01*
X1178260Y783560D01*
X1178059Y783710D01*
X1177859Y783880D01*
X1177680Y784050D01*
X1177499Y784240D01*
X1177339Y784430D01*
X1177179Y784630D01*
X1177039Y784840D01*
X1176899Y785060D01*
X1176779Y785290D01*
X1176669Y785520D01*
X1176570Y785750D01*
X1176489Y785990D01*
X1176420Y786240D01*
X1176359Y786490D01*
X1176310Y786740D01*
X1176280Y786990D01*
X1176260Y787240D01*
X1176249Y787500D01*
X1176260Y787760D01*
D02*
G37*
G36*
Y857760D02*
X1176280Y858010D01*
X1176310Y858260D01*
X1176359Y858510D01*
X1176420Y858760D01*
X1176489Y859010D01*
X1176570Y859250D01*
X1176669Y859480D01*
X1176779Y859710D01*
X1176899Y859940D01*
X1177039Y860160D01*
X1177179Y860370D01*
X1177339Y860570D01*
X1177499Y860760D01*
X1177680Y860950D01*
X1177859Y861120D01*
X1178059Y861290D01*
X1178260Y861440D01*
X1178469Y861590D01*
X1178689Y861720D01*
X1178910Y861840D01*
X1179139Y861950D01*
X1179380Y862050D01*
X1179620Y862140D01*
X1179859Y862210D01*
X1180109Y862270D01*
X1180359Y862310D01*
X1180620Y862350D01*
X1180870Y862370D01*
X1181120D01*
X1181124Y862375D01*
X1188879Y862370D01*
X1189129D01*
X1189380Y862350D01*
X1189640Y862310D01*
X1189890Y862270D01*
X1190139Y862210D01*
X1190379Y862140D01*
X1190620Y862050D01*
X1190860Y861950D01*
X1191089Y861840D01*
X1191310Y861720D01*
X1191529Y861590D01*
X1191740Y861440D01*
X1191939Y861290D01*
X1192140Y861120D01*
X1192319Y860950D01*
X1192499Y860760D01*
X1192660Y860570D01*
X1192820Y860370D01*
X1192960Y860160D01*
X1193100Y859940D01*
X1193220Y859710D01*
X1193329Y859480D01*
X1193429Y859250D01*
X1193510Y859010D01*
X1193579Y858760D01*
X1193640Y858510D01*
X1193689Y858260D01*
X1193719Y858010D01*
X1193739Y857760D01*
X1193749Y857500D01*
X1193739Y857240D01*
X1193719Y856990D01*
X1193689Y856740D01*
X1193640Y856490D01*
X1193579Y856240D01*
X1193510Y855990D01*
X1193429Y855750D01*
X1193329Y855520D01*
X1193220Y855290D01*
X1193100Y855060D01*
X1192960Y854840D01*
X1192820Y854630D01*
X1192660Y854430D01*
X1192499Y854240D01*
X1192319Y854050D01*
X1192140Y853880D01*
X1191939Y853710D01*
X1191740Y853560D01*
X1191529Y853410D01*
X1191310Y853280D01*
X1191089Y853160D01*
X1190860Y853050D01*
X1190620Y852950D01*
X1190379Y852860D01*
X1190139Y852790D01*
X1189890Y852730D01*
X1189640Y852690D01*
X1189380Y852650D01*
X1189129Y852630D01*
X1188879D01*
X1181120D01*
X1180870D01*
X1180620Y852650D01*
X1180359Y852690D01*
X1180109Y852730D01*
X1179859Y852790D01*
X1179620Y852860D01*
X1179380Y852950D01*
X1179139Y853050D01*
X1178910Y853160D01*
X1178689Y853280D01*
X1178469Y853410D01*
X1178260Y853560D01*
X1178059Y853710D01*
X1177859Y853880D01*
X1177680Y854050D01*
X1177499Y854240D01*
X1177339Y854430D01*
X1177179Y854630D01*
X1177039Y854840D01*
X1176899Y855060D01*
X1176779Y855290D01*
X1176669Y855520D01*
X1176570Y855750D01*
X1176489Y855990D01*
X1176420Y856240D01*
X1176359Y856490D01*
X1176310Y856740D01*
X1176280Y856990D01*
X1176260Y857240D01*
X1176249Y857500D01*
X1176260Y857760D01*
D02*
G37*
D47*
X1158000Y847500D02*
D03*
Y797500D02*
D03*
D48*
X1104900Y946910D02*
D03*
Y631950D02*
D03*
X1079500D02*
D03*
X1054100D02*
D03*
X1028700D02*
D03*
X1003300D02*
D03*
X977900D02*
D03*
X952500D02*
D03*
X927100D02*
D03*
X850900D02*
D03*
X825500D02*
D03*
X800100D02*
D03*
X876300D02*
D03*
X901700D02*
D03*
X749300D02*
D03*
X774700D02*
D03*
X723900D02*
D03*
Y946910D02*
D03*
X901700D02*
D03*
X1054100D02*
D03*
X1003300D02*
D03*
X825500D02*
D03*
X876300D02*
D03*
X977900D02*
D03*
X774700D02*
D03*
X1079500D02*
D03*
X850900D02*
D03*
X927100D02*
D03*
X952500D02*
D03*
X1028700D02*
D03*
X749300D02*
D03*
X800100D02*
D03*
D49*
X644760Y769110D02*
D03*
Y794510D02*
D03*
X670160Y692910D02*
D03*
Y743710D02*
D03*
X644760Y692910D02*
D03*
Y667510D02*
D03*
X670160Y794510D02*
D03*
X644760Y718310D02*
D03*
X670160D02*
D03*
Y769110D02*
D03*
X644760Y743710D02*
D03*
D50*
X670160Y667510D02*
D03*
D51*
X660000Y612900D02*
D03*
Y955800D02*
D03*
X1155300Y612900D02*
D03*
Y955800D02*
D03*
D52*
X1136000Y872750D02*
D03*
X1177000Y666250D02*
D03*
X912750Y877000D02*
D03*
X866656Y678937D02*
D03*
X1162250Y762750D02*
D03*
X1069500Y853500D02*
D03*
X1074250Y687000D02*
D03*
X1025500Y673500D02*
D03*
X846500Y805500D02*
D03*
X625000Y769250D02*
D03*
X703000Y893750D02*
D03*
X829000Y783000D02*
D03*
X848250Y759750D02*
D03*
X737250Y711000D02*
D03*
X843250Y729500D02*
D03*
X687500Y652000D02*
D03*
X922500Y742500D02*
D03*
X846250Y744500D02*
D03*
X847500Y791000D02*
D03*
X854250Y828750D02*
D03*
X1009750Y658750D02*
D03*
X992457Y726082D02*
D03*
X960500Y652750D02*
D03*
X1119500Y675000D02*
D03*
X1142500Y667500D02*
D03*
Y727500D02*
D03*
X1100750Y675250D02*
D03*
X1070000Y762500D02*
D03*
Y797500D02*
D03*
X1112500Y847500D02*
D03*
X884250Y677750D02*
D03*
X898322Y888449D02*
D03*
X1050250Y866250D02*
D03*
D53*
X840000Y970000D02*
D03*
X857500Y922500D02*
D03*
X876754Y919116D02*
D03*
X900000Y805000D02*
D03*
X937500Y720000D02*
D03*
X955000Y750000D02*
D03*
X957500Y730000D02*
D03*
X927500Y787500D02*
D03*
X945000Y830000D02*
D03*
X947500Y877500D02*
D03*
X952500Y805000D02*
D03*
X962500Y885000D02*
D03*
Y842500D02*
D03*
X972500Y787500D02*
D03*
X982500Y777500D02*
D03*
X985589Y886243D02*
D03*
X1070000Y872500D02*
D03*
X912500Y787500D02*
D03*
M02*
