G04*
G04 #@! TF.GenerationSoftware,Altium Limited,Altium Designer,25.8.1 (18)*
G04*
G04 Layer_Physical_Order=3*
G04 Layer_Color=128*
%FSLAX44Y44*%
%MOMM*%
G71*
G04*
G04 #@! TF.SameCoordinates,6D136024-224E-458A-A63F-B79C518EF4E7*
G04*
G04*
G04 #@! TF.FilePolarity,Negative*
G04*
G01*
G75*
%ADD69C,1.0160*%
%ADD70C,2.0360*%
%ADD71C,2.1160*%
%ADD72C,4.4160*%
%ADD73C,1.3716*%
%ADD74C,1.3208*%
%ADD75O,2.1660X1.5160*%
%ADD76O,1.5660X1.9160*%
D69*
X612700Y1002500D02*
G03*
X600000Y989800I-0J-12700D01*
G01*
X1200000Y989800D02*
G03*
X1187300Y1002500I-12700J0D01*
G01*
X1187300Y577500D02*
G03*
X1200000Y590200I0J12700D01*
G01*
X600000D02*
G03*
X612700Y577500I12700J0D01*
G01*
X600000Y590200D02*
Y989800D01*
X612700Y1002500D02*
X1187300Y1002500D01*
X1200000Y989800D02*
X1200000Y590200D01*
X612700Y577500D02*
X1187300Y577500D01*
D70*
X644760Y769110D02*
D03*
Y794510D02*
D03*
X670160Y692910D02*
D03*
Y743710D02*
D03*
X644760Y692910D02*
D03*
Y667510D02*
D03*
X670160Y794510D02*
D03*
X644760Y718310D02*
D03*
X670160D02*
D03*
Y769110D02*
D03*
X644760Y743710D02*
D03*
D71*
X1104900Y946910D02*
D03*
Y631950D02*
D03*
X1079500D02*
D03*
X1054100D02*
D03*
X1028700D02*
D03*
X1003300D02*
D03*
X977900D02*
D03*
X952500D02*
D03*
X927100D02*
D03*
X850900D02*
D03*
X825500D02*
D03*
X800100D02*
D03*
X876300D02*
D03*
X901700D02*
D03*
X749300D02*
D03*
X774700D02*
D03*
X723900D02*
D03*
Y946910D02*
D03*
X901700D02*
D03*
X1054100D02*
D03*
X1003300D02*
D03*
X825500D02*
D03*
X876300D02*
D03*
X977900D02*
D03*
X774700D02*
D03*
X1079500D02*
D03*
X850900D02*
D03*
X927100D02*
D03*
X952500D02*
D03*
X1028700D02*
D03*
X749300D02*
D03*
X800100D02*
D03*
D72*
X660000Y612900D02*
D03*
Y955800D02*
D03*
X1155300Y612900D02*
D03*
Y955800D02*
D03*
D73*
X1136000Y872750D02*
D03*
X1177000Y666250D02*
D03*
X912750Y877000D02*
D03*
X866656Y678937D02*
D03*
X1162250Y762750D02*
D03*
X1069500Y853500D02*
D03*
X1074250Y687000D02*
D03*
X1025500Y673500D02*
D03*
X846500Y805500D02*
D03*
X625000Y769250D02*
D03*
X703000Y893750D02*
D03*
X829000Y783000D02*
D03*
X848250Y759750D02*
D03*
X737250Y711000D02*
D03*
X843250Y729500D02*
D03*
X922500Y742500D02*
D03*
X992457Y726082D02*
D03*
X1142500Y667500D02*
D03*
Y727500D02*
D03*
X1070000Y762500D02*
D03*
Y797500D02*
D03*
X1112500Y847500D02*
D03*
D74*
X840000Y970000D02*
D03*
X857500Y922500D02*
D03*
X876754Y919116D02*
D03*
X900000Y805000D02*
D03*
X937500Y720000D02*
D03*
X955000Y750000D02*
D03*
X957500Y730000D02*
D03*
X927500Y787500D02*
D03*
X945000Y830000D02*
D03*
X947500Y877500D02*
D03*
X952500Y805000D02*
D03*
X962500Y885000D02*
D03*
Y842500D02*
D03*
X972500Y787500D02*
D03*
X982500Y777500D02*
D03*
X985589Y886243D02*
D03*
X1070000Y872500D02*
D03*
X912500Y787500D02*
D03*
D75*
X1185000Y857500D02*
D03*
Y787500D02*
D03*
D76*
X1158000Y847500D02*
D03*
Y797500D02*
D03*
M02*
