G04*
G04 #@! TF.GenerationSoftware,Altium Limited,Altium Designer,25.8.1 (18)*
G04*
G04 Layer_Color=8421504*
%FSLAX44Y44*%
%MOMM*%
G71*
G04*
G04 #@! TF.SameCoordinates,6D136024-224E-458A-A63F-B79C518EF4E7*
G04*
G04*
G04 #@! TF.FilePolarity,Positive*
G04*
G01*
G75*
%ADD14R,0.6604X0.6096*%
%ADD15R,0.9779X0.5588*%
%ADD16R,1.3000X1.5500*%
%ADD17R,0.5588X0.3048*%
%ADD18R,0.4064X0.8382*%
%ADD19R,1.1000X1.0000*%
%ADD20R,1.7500X2.5000*%
%ADD21R,0.8000X0.4000*%
%ADD22R,0.3048X0.5588*%
%ADD23R,0.7500X0.8500*%
%ADD24R,0.5500X0.6532*%
%ADD25R,0.6532X0.5500*%
%ADD26R,0.8000X0.6556*%
%ADD27R,1.5500X1.5000*%
%ADD28R,1.3500X0.4000*%
%ADD29R,0.9556X0.9000*%
%ADD30R,0.6556X0.8000*%
%ADD31R,0.6548X0.5080*%
%ADD32R,0.9000X0.9556*%
%ADD33R,0.7032X0.9600*%
%ADD34R,1.0056X0.9500*%
%ADD35R,0.9600X0.7032*%
%ADD36R,0.5588X0.5588*%
%ADD37R,0.7112X0.9398*%
G36*
X1192749Y799500D02*
Y788050D01*
X1192739Y787790D01*
X1192719Y787530D01*
X1192690Y787270D01*
X1192639Y787010D01*
X1192579Y786760D01*
X1192510Y786500D01*
X1192420Y786260D01*
X1192319Y786020D01*
X1192209Y785780D01*
X1192079Y785550D01*
X1191939Y785330D01*
X1191799Y785110D01*
X1191639Y784900D01*
X1191469Y784700D01*
X1191290Y784510D01*
X1191099Y784330D01*
X1190900Y784160D01*
X1190689Y784000D01*
X1190470Y783860D01*
X1190249Y783720D01*
X1190020Y783590D01*
X1189780Y783480D01*
X1189539Y783380D01*
X1189299Y783290D01*
X1189040Y783220D01*
X1188790Y783160D01*
X1188530Y783110D01*
X1188270Y783080D01*
X1188009Y783060D01*
X1187749Y783050D01*
X1182250D01*
X1181990Y783060D01*
X1181730Y783080D01*
X1181469Y783110D01*
X1181209Y783160D01*
X1180959Y783220D01*
X1180699Y783290D01*
X1180460Y783380D01*
X1180219Y783480D01*
X1179979Y783590D01*
X1179750Y783720D01*
X1179529Y783860D01*
X1179309Y784000D01*
X1179100Y784160D01*
X1178900Y784330D01*
X1178709Y784510D01*
X1178530Y784700D01*
X1178360Y784900D01*
X1178199Y785110D01*
X1178059Y785330D01*
X1177919Y785550D01*
X1177790Y785780D01*
X1177680Y786020D01*
X1177579Y786260D01*
X1177489Y786500D01*
X1177420Y786760D01*
X1177359Y787010D01*
X1177309Y787270D01*
X1177280Y787530D01*
X1177260Y787790D01*
X1177250Y788050D01*
Y799500D01*
X1192749D01*
D02*
G37*
G36*
X1177260Y857210D02*
X1177280Y857470D01*
X1177309Y857730D01*
X1177359Y857990D01*
X1177420Y858240D01*
X1177489Y858500D01*
X1177579Y858740D01*
X1177680Y858980D01*
X1177790Y859220D01*
X1177919Y859450D01*
X1178059Y859670D01*
X1178199Y859890D01*
X1178360Y860100D01*
X1178530Y860300D01*
X1178709Y860490D01*
X1178900Y860670D01*
X1179100Y860840D01*
X1179309Y861000D01*
X1179529Y861140D01*
X1179750Y861280D01*
X1179979Y861410D01*
X1180219Y861520D01*
X1180460Y861620D01*
X1180699Y861710D01*
X1180959Y861780D01*
X1181209Y861840D01*
X1181469Y861890D01*
X1181730Y861920D01*
X1181990Y861940D01*
X1182250Y861950D01*
X1187749D01*
X1188009Y861940D01*
X1188270Y861920D01*
X1188530Y861890D01*
X1188790Y861840D01*
X1189040Y861780D01*
X1189299Y861710D01*
X1189539Y861620D01*
X1189780Y861520D01*
X1190020Y861410D01*
X1190249Y861280D01*
X1190470Y861140D01*
X1190689Y861000D01*
X1190900Y860840D01*
X1191099Y860670D01*
X1191290Y860490D01*
X1191469Y860300D01*
X1191639Y860100D01*
X1191799Y859890D01*
X1191939Y859670D01*
X1192079Y859450D01*
X1192209Y859220D01*
X1192319Y858980D01*
X1192420Y858740D01*
X1192510Y858500D01*
X1192579Y858240D01*
X1192639Y857990D01*
X1192690Y857730D01*
X1192719Y857470D01*
X1192739Y857210D01*
X1192749Y856950D01*
Y845500D01*
X1177250D01*
Y856950D01*
X1177260Y857210D01*
D02*
G37*
D14*
X1137961Y782500D02*
D03*
X1127039D02*
D03*
D15*
X1083848Y817500D02*
D03*
X1111153Y827000D02*
D03*
Y817500D02*
D03*
Y808000D02*
D03*
X1083848Y827000D02*
D03*
Y808000D02*
D03*
D16*
X637500Y838580D02*
D03*
Y918080D02*
D03*
X682500D02*
D03*
Y838580D02*
D03*
D17*
X1132500Y845675D02*
D03*
Y839325D02*
D03*
D18*
X1137707Y770000D02*
D03*
X1127293D02*
D03*
D19*
X1181000Y687500D02*
D03*
X1181000Y707500D02*
D03*
X756500Y717500D02*
D03*
X773500D02*
D03*
X1164000Y707500D02*
D03*
X1164000Y687500D02*
D03*
D20*
X1095610Y717040D02*
D03*
D21*
X1081110D02*
D03*
X1110110Y726540D02*
D03*
X1081110Y707540D02*
D03*
Y726540D02*
D03*
X1110110Y717040D02*
D03*
Y707540D02*
D03*
D22*
X701825Y865000D02*
D03*
X708175D02*
D03*
D23*
X799500Y756500D02*
D03*
X810000Y770000D02*
D03*
Y756500D02*
D03*
X799500Y770000D02*
D03*
D24*
X857500Y799016D02*
D03*
X1069500Y716734D02*
D03*
X857500Y808484D02*
D03*
X857500Y759016D02*
D03*
Y733484D02*
D03*
Y741516D02*
D03*
Y750984D02*
D03*
X857500Y816516D02*
D03*
X1069500Y724766D02*
D03*
X857500Y790984D02*
D03*
D25*
X899880Y682599D02*
D03*
X1049016Y852500D02*
D03*
X1021968Y687500D02*
D03*
X901516Y877500D02*
D03*
X893484D02*
D03*
X1030000Y687500D02*
D03*
X1040984Y852500D02*
D03*
X907912Y682599D02*
D03*
D26*
X1060000Y845778D02*
D03*
Y829223D02*
D03*
D27*
X1185000Y832500D02*
D03*
Y812500D02*
D03*
D28*
X1158250Y835500D02*
D03*
Y809500D02*
D03*
Y816000D02*
D03*
Y822500D02*
D03*
Y829000D02*
D03*
D29*
X1092944Y692250D02*
D03*
X1107500D02*
D03*
D30*
X1087332Y742440D02*
D03*
X1013278Y680000D02*
D03*
X1103888Y742440D02*
D03*
X996722Y680000D02*
D03*
D31*
X917690Y888500D02*
D03*
X1080560Y780000D02*
D03*
X1101060Y754250D02*
D03*
X928810Y888500D02*
D03*
X1089940Y754250D02*
D03*
X1069440Y780000D02*
D03*
D32*
X841500Y816722D02*
D03*
Y831278D02*
D03*
D33*
X816266Y797750D02*
D03*
X801734D02*
D03*
D34*
X705222Y880000D02*
D03*
X719778D02*
D03*
D35*
X825000Y772266D02*
D03*
Y757734D02*
D03*
D36*
X963356Y665000D02*
D03*
X972500D02*
D03*
X995000D02*
D03*
X985856D02*
D03*
D37*
X1146985Y707500D02*
D03*
X1133015D02*
D03*
X1146985Y687500D02*
D03*
X1133015D02*
D03*
X787675Y716840D02*
D03*
X801645D02*
D03*
M02*
