M48
;Layer_Color=9474304
;FILE_FORMAT=2:5
INCH,LZ
;TYPE=PLATED
T01F00S00C0.01200
T02F00S00C0.01400
T05F00S00C0.04016
T06F00S00C0.04331
T07F00S00C0.13386
%
T01
X0369094Y0283465
X0376969Y0287402
X0375984Y0295276
X0382874Y0310039
X0386811Y0306102
X0365157Y0310039
X0359252
X0354331Y0316929
X0375
X0372047Y0326772
X0378937Y0331693
Y0348425
X0373032Y0345472
X0388027Y0348914
X042126Y0343504
X0345179Y0361857
X0337598Y0363189
X0330709Y038189
T02
X0341203Y0267298
X034813Y0266831
X0331988Y0287205
X0333169Y029311
X0333957Y0299114
X0333661Y0311417
X0326378Y0308268
X0363189Y0292323
X0390731Y0285859
X0397539Y025935
X040374Y0265158
X0422933Y0270472
X0433366Y0265846
X0440748Y0265748
X0449803Y0262795
X0463386Y0262303
X0449803Y0286417
X0457579Y0300295
X042126Y0300197
X037815Y0256988
X0270669Y0256693
X0290256Y0279921
X0246063Y0302854
X0276772Y035187
X035367Y0349783
X035935Y0345276
X0336319Y0326279
X0333268Y0317126
X042126Y0313976
X0421063Y0336024
X0413484Y0341043
X0437992Y0333661
X0447244Y0343602
T05
X0253843Y0262799
X0263843
Y0272799
X0253843
Y0282799
X0263843
Y0292799
Y0302799
X0253843
Y0292799
Y0312799
X0263843
T06
X0315Y0248799
X0325
X0335
X0345
X0355
X0365
X0375
X0385
X0395
X0405
X0415
X0425
X0435
X0305
X0295
X0285
Y0372799
X0295
X0305
X0315
X0325
X0335
X0345
X0355
X0365
X0375
X0385
X0395
X0405
X0415
X0425
X0435
T07
X0454843Y0241299
X0259843
Y0376299
X0454843
M30
