G04*
G04 #@! TF.GenerationSoftware,Altium Limited,Altium Designer,25.8.1 (18)*
G04*
G04 Layer_Physical_Order=4*
G04 Layer_Color=16711680*
%FSLAX44Y44*%
%MOMM*%
G71*
G04*
G04 #@! TF.SameCoordinates,6D136024-224E-458A-A63F-B79C518EF4E7*
G04*
G04*
G04 #@! TF.FilePolarity,Positive*
G04*
G01*
G75*
%ADD13C,0.2540*%
%ADD61O,1.5500X0.7750*%
%ADD62O,0.9500X1.3000*%
%ADD63C,1.6500*%
%ADD64C,1.5300*%
%ADD65R,1.5300X1.5300*%
%ADD66C,1.5240*%
%ADD67C,0.7112*%
%ADD68C,0.6350*%
D13*
X899121Y969390D02*
X901700Y966812D01*
Y946910D02*
Y966812D01*
X895940Y930233D02*
X937254D01*
X927100Y946910D02*
X929771Y944239D01*
X935566D01*
X958366Y921439D01*
X952500Y946910D02*
X955239D01*
X973440Y928709D01*
X977900Y946910D02*
X980571Y944239D01*
X973440Y928709D02*
X991883D01*
X992457Y726082D02*
X1006584D01*
X1005365Y797864D02*
X1032500Y825000D01*
X952500Y805000D02*
Y811012D01*
X937500Y720000D02*
X964758D01*
X670160Y742870D02*
X686666Y726364D01*
Y712497D02*
Y726364D01*
X671421Y718310D02*
X718291Y671439D01*
X686666Y712497D02*
X720612Y678552D01*
X673613Y794510D02*
X717819Y838716D01*
X866284D02*
X900000Y805000D01*
X717819Y838716D02*
X866284D01*
X850000Y885000D02*
X904768Y830232D01*
X827467Y885000D02*
X850000D01*
X1070000Y762500D02*
X1107500D01*
X1071417Y661250D02*
X1133946D01*
X1107500Y762500D02*
X1142500Y727500D01*
X1133946Y661250D02*
X1139321Y666625D01*
X1141625D01*
X1142500Y667500D01*
X1022741Y830640D02*
Y907259D01*
X1032500Y825000D02*
Y917710D01*
X1028700Y946910D02*
X1039767Y935843D01*
X1049266D01*
X1053360Y825860D02*
Y855860D01*
X1049266Y935843D02*
X1060613Y924497D01*
X1053360Y855860D02*
X1060613Y863113D01*
Y924497D01*
X1054100Y946910D02*
X1070000Y931010D01*
X1006584Y726082D02*
X1071417Y661250D01*
X1070000Y872500D02*
Y931010D01*
Y872500D02*
X1070000Y872500D01*
X1070000Y797500D02*
X1081420D01*
X1079500Y946910D02*
X1080000Y946410D01*
X1081420Y797500D02*
X1112500Y828580D01*
X1080000Y835242D02*
Y946410D01*
X1112500Y828580D02*
Y847500D01*
X715243Y665043D02*
X832299D01*
X718291Y671439D02*
X828864D01*
X720612Y678552D02*
X827101D01*
X674728Y705558D02*
X715243Y665043D01*
X670160Y794510D02*
X673613D01*
X644760Y743710D02*
X657500Y730970D01*
Y712437D02*
Y730970D01*
Y712437D02*
X664378Y705558D01*
X674728D01*
X670160Y742870D02*
Y743710D01*
Y718310D02*
X671421D01*
X827101Y678552D02*
X912500Y763952D01*
X828864Y671439D02*
X927500Y770076D01*
X912500Y763952D02*
Y787500D01*
X909055Y741799D02*
X921799D01*
X922500Y742500D01*
X927500Y770076D02*
Y787500D01*
X952500Y766896D02*
Y780261D01*
X964758Y720000D02*
X1080000Y835242D01*
X952500Y811012D02*
X953988Y812500D01*
X952500Y766896D02*
X955000Y764396D01*
Y750000D02*
Y764396D01*
X972500Y787500D02*
X979600D01*
X952500Y780261D02*
X1016717Y844478D01*
X982500Y777500D02*
X1002865Y797864D01*
X979600Y787500D02*
X1022741Y830640D01*
X1002865Y797864D02*
X1005365D01*
X957500Y730000D02*
X1053360Y825860D01*
X776979Y912331D02*
X800136D01*
X802156Y922843D02*
X826898Y898102D01*
X934398D01*
X800136Y912331D02*
X827467Y885000D01*
X834541Y902959D02*
X944541D01*
X837408Y909602D02*
X950398D01*
X723900Y946910D02*
X740810Y930000D01*
X759310D01*
X749300Y946910D02*
X753077D01*
X756944Y943044D01*
X757409D01*
X777609Y922843D01*
X759310Y930000D02*
X776979Y912331D01*
X774700Y946910D02*
X792270Y929340D01*
X777609Y922843D02*
X802156D01*
X792270Y929340D02*
X808160D01*
X800100Y946910D02*
X837408Y909602D01*
X808160Y929340D02*
X834541Y902959D01*
X825500Y946910D02*
X849910Y922500D01*
X840000Y970000D02*
X840609Y969390D01*
X849910Y922500D02*
X857500D01*
X850900Y946910D02*
X876025Y921785D01*
X840609Y969390D02*
X899121D01*
X876025Y919845D02*
Y921785D01*
Y919845D02*
X876754Y919116D01*
X876300Y946910D02*
X879263D01*
X895940Y930233D01*
X904768Y830232D02*
X944768D01*
X934398Y898102D02*
X947500Y885000D01*
X944768Y830232D02*
X945000Y830000D01*
X947500Y877500D02*
Y885000D01*
X937254Y930233D02*
X960995Y906492D01*
X944541Y902959D02*
X962500Y885000D01*
X950398Y909602D02*
X960000Y900000D01*
X953988Y812500D02*
X966053D01*
X960000Y900000D02*
X971831D01*
X962500Y842500D02*
X975000D01*
X958366Y921439D02*
X983561D01*
X960995Y906492D02*
X981007D01*
X971831Y900000D02*
X985589Y886243D01*
X975000Y842500D02*
X997500Y865000D01*
X966053Y812500D02*
X1007500Y853947D01*
X981007Y906492D02*
X995000Y892500D01*
X996012D01*
X983561Y921439D02*
X1007500Y897500D01*
X996012Y892500D02*
X997500Y891012D01*
Y865000D02*
Y891012D01*
X991883Y928709D02*
X1016717Y903876D01*
X1007500Y853947D02*
Y897500D01*
X1016717Y844478D02*
Y903876D01*
X980571Y944239D02*
X985761D01*
X1022741Y907259D01*
X1003300Y946910D02*
X1032500Y917710D01*
X832299Y665043D02*
X909055Y741799D01*
D61*
X1185000Y857500D02*
D03*
Y787500D02*
D03*
D62*
X1158000Y847500D02*
D03*
Y797500D02*
D03*
D63*
X1104900Y946910D02*
D03*
Y631950D02*
D03*
X1079500D02*
D03*
X1054100D02*
D03*
X1028700D02*
D03*
X1003300D02*
D03*
X977900D02*
D03*
X952500D02*
D03*
X927100D02*
D03*
X850900D02*
D03*
X825500D02*
D03*
X800100D02*
D03*
X876300D02*
D03*
X901700D02*
D03*
X749300D02*
D03*
X774700D02*
D03*
X723900D02*
D03*
Y946910D02*
D03*
X901700D02*
D03*
X1054100D02*
D03*
X1003300D02*
D03*
X825500D02*
D03*
X876300D02*
D03*
X977900D02*
D03*
X774700D02*
D03*
X1079500D02*
D03*
X850900D02*
D03*
X927100D02*
D03*
X952500D02*
D03*
X1028700D02*
D03*
X749300D02*
D03*
X800100D02*
D03*
D64*
X644760Y769110D02*
D03*
Y794510D02*
D03*
X670160Y692910D02*
D03*
Y743710D02*
D03*
X644760Y692910D02*
D03*
Y667510D02*
D03*
X670160Y794510D02*
D03*
X644760Y718310D02*
D03*
X670160D02*
D03*
Y769110D02*
D03*
X644760Y743710D02*
D03*
D65*
X670160Y667510D02*
D03*
D66*
X660000Y612900D02*
D03*
Y955800D02*
D03*
X1155300Y612900D02*
D03*
Y955800D02*
D03*
D67*
X1136000Y872750D02*
D03*
X1177000Y666250D02*
D03*
X912750Y877000D02*
D03*
X866656Y678937D02*
D03*
X1162250Y762750D02*
D03*
X1069500Y853500D02*
D03*
X1074250Y687000D02*
D03*
X1025500Y673500D02*
D03*
X846500Y805500D02*
D03*
X625000Y769250D02*
D03*
X703000Y893750D02*
D03*
X829000Y783000D02*
D03*
X848250Y759750D02*
D03*
X737250Y711000D02*
D03*
X843250Y729500D02*
D03*
X687500Y652000D02*
D03*
X922500Y742500D02*
D03*
X846250Y744500D02*
D03*
X847500Y791000D02*
D03*
X854250Y828750D02*
D03*
X1009750Y658750D02*
D03*
X992457Y726082D02*
D03*
X960500Y652750D02*
D03*
X1119500Y675000D02*
D03*
X1142500Y667500D02*
D03*
Y727500D02*
D03*
X1100750Y675250D02*
D03*
X1070000Y762500D02*
D03*
Y797500D02*
D03*
X1112500Y847500D02*
D03*
X884250Y677750D02*
D03*
X898322Y888449D02*
D03*
X1050250Y866250D02*
D03*
D68*
X840000Y970000D02*
D03*
X857500Y922500D02*
D03*
X876754Y919116D02*
D03*
X900000Y805000D02*
D03*
X937500Y720000D02*
D03*
X955000Y750000D02*
D03*
X957500Y730000D02*
D03*
X927500Y787500D02*
D03*
X945000Y830000D02*
D03*
X947500Y877500D02*
D03*
X952500Y805000D02*
D03*
X962500Y885000D02*
D03*
Y842500D02*
D03*
X972500Y787500D02*
D03*
X982500Y777500D02*
D03*
X985589Y886243D02*
D03*
X1070000Y872500D02*
D03*
X912500Y787500D02*
D03*
M02*
