M48
;Layer_Color=9474304
;FILE_FORMAT=4:4
METRIC,LZ
;TYPE=PLATED
T01F00S00C0.3048
T02F00S00C0.3556
T05F00S00C1.0200
T06F00S00C1.1000
T07F00S00C3.4000
%
T01
X009375Y0072
X009575Y0073
X00955Y0075
X009725Y007875
X009825Y007775
X009275Y007875
X009125
X009Y00805
X009525
X00945Y0083
X009625Y008425
Y00885
X009475Y008775
X00985589Y00886243
X0107Y008725
X00876754Y00919116
X008575Y009225
X0084Y0097
T02
X00866656Y00678937
X0088425Y0067775
X0084325Y007295
X0084625Y007445
X0084825Y0075975
X008475Y00791
X00829Y00783
X009225Y007425
X00992457Y00726082
X0100975Y0065875
X010255Y006735
X0107425Y00687
X0110075Y0067525
X011195Y00675
X011425Y006675
X01177Y0066625
X011425Y007275
X0116225Y0076275
X0107Y007625
X009605Y0065275
X006875Y00652
X0073725Y00711
X00625Y0076925
X00703Y0089375
X00898322Y00888449
X0091275Y00877
X0085425Y0082875
X008465Y008055
X0107Y007975
X010695Y008535
X0105025Y0086625
X011125Y008475
X01136Y0087275
T05
X0064476Y0066751
X0067016
Y0069291
X0064476
Y0071831
X0067016
Y0074371
Y0076911
X0064476
Y0074371
Y0079451
X0067016
T06
X008001Y0063195
X008255
X008509
X008763
X009017
X009271
X009525
X009779
X010033
X010287
X010541
X010795
X011049
X007747
X007493
X007239
Y0094691
X007493
X007747
X008001
X008255
X008509
X008763
X009017
X009271
X009525
X009779
X010033
X010287
X010541
X010795
X011049
T07
X011553Y006129
X0066
Y009558
X011553
M30
